<svg enable-background="new 0 0 57 57" viewBox="0 0 57 57" xmlns="http://www.w3.org/2000/svg"><g fill="none" stroke="#1b1f26" stroke-miterlimit="10" stroke-width="4"><path d="m13 15.2c13.5 0 26.9.1 40.4.1-1.8 5.2-3.1 10.8-5 15.9-.8 2.1-1.6 4.3-1.8 6.6-9.7.1-19.6.3-29.3.5"/><path d="m14.5 25.6c7.4-.4 14.9 0 22.3.4 4.5.3 9.1.5 13.6.8"/><path d="m22.1 15.5c-.5 4.6.1 9.2.8 13.8.4 3 .9 6 1.3 9"/><path d="m32.1 15v22.1"/><path d="m44.3 16.1c-1.2 5.3-2.8 10.4-5 15.4-.7 1.7-1.5 3.5-1.3 5.4"/><path d="m1.4 8.8h7.2c1.7 3.1 2.8 6.1 3.5 9.6 2 8.9 4.5 17.7 7.4 26.4 8.9.3 17.8.2 26.6-.4"/></g><circle cx="22" cy="51.6" fill="#1b1f26" r="2.6"/><circle cx="42.7" cy="51.6" fill="#1b1f26" r="2.6"/></svg>