<svg viewBox="0 0 448.28 28.99" xmlns="http://www.w3.org/2000/svg"><g stroke-miterlimit="10" transform="translate(-.98 -1.17)"><path d="m6.49 3.38h35.24a20.56 20.56 0 0 1 4.65 5.72l3 4.85c.15.24.38.52.7.49s.5-.47.52-.8c.14-3-.19-6 .28-9a1.58 1.58 0 0 1 .32-.84 2.81 2.81 0 0 1 2.09-.42 66.14 66.14 0 0 0 11.43-.22h46.07c.34.21.72.22.77.58a120.8 120.8 0 0 0 2.78 14.18c1.51-4.93 3.44-9.7 5-14.63h35.79l.56 4a15.13 15.13 0 0 0 4.45-1.47q3.52 6.32 7.65 12.36c1.08-1.88.69-4.12.6-6.23a20.65 20.65 0 0 1 .48-5.42 3.43 3.43 0 0 1 1.06-2.06 5.53 5.53 0 0 1 3.25-.73h86.5c.79 0 1.34.13 2.12.19 3.83 3.3 4.77 8.63 8.8 11.74a52.24 52.24 0 0 1 .11-11 1.19 1.19 0 0 1 .29-.67c.54-.48 1.66-.29 2.31-.65h73a23.54 23.54 0 0 1 .54 5.65 9.87 9.87 0 0 1 3 0 .72.72 0 0 1 .33.11.59.59 0 0 1 .17.33l1.21 4.56a3 3 0 0 0 .94 1.75c.56.42 1.61.39 1.89-.22a1.36 1.36 0 0 0 .08-.57c0-3.48.48-7.4.51-10.88h32.35c.9 0 2.15-.36 3-.29l.95 13.5a93 93 0 0 0 7.27-14.09h26.56c.06.63.35.53.37 1.17l.41 11.12c2-3.17 3.74-6.49 5.45-9.8.42-.81.86-1.39 1.28-2.2h13.88a125.87 125.87 0 0 1 .33 23.61h-16.5l-22.57.79a3 3 0 0 1 -1.31-.15c-.94-.4-1-1.53-1-2.45a34.59 34.59 0 0 0 -1.55-10.71 68.73 68.73 0 0 1 -4.63 10.42 1.92 1.92 0 0 1 -.79.9 2.37 2.37 0 0 1 -1 .17c-1.9.08-3.61.17-5.51.17h-39.7q-11.7.35-23.37 1.17a19 19 0 0 1 -8.4-1.24 13.87 13.87 0 0 1 -4.49 1.52.65.65 0 0 1 -.34 0 .59.59 0 0 1 -.33-.39 162.84 162.84 0 0 0 -7.82-16c.27 5.22.51 10.74.77 16h-35.29a2.28 2.28 0 0 1 -1.18-1.34 12.68 12.68 0 0 1 -5.38 1.41 4.66 4.66 0 0 1 -1.24-.1 4.16 4.16 0 0 1 -2.36-2.56 101.85 101.85 0 0 0 -9-15.37q-.54 6.91-1.07 13.83a5.86 5.86 0 0 1 -.77 3c-.6.88-1.47.88-2.62.88h-94.88c0 .11.3 0 .16 0l-25.27-.79a27.29 27.29 0 0 1 -6.4-.68 3.65 3.65 0 0 1 -.64 1.65l-4.48-.35a1.86 1.86 0 0 1 -.78-.18 2.2 2.2 0 0 1 -.62-.73 2.62 2.62 0 0 0 -2-1 5.75 5.75 0 0 0 -.81 1.87l-12.2.16a55 55 0 0 1 -.14-5.6 34 34 0 0 1 -5.61.47 4.37 4.37 0 0 0 .1 2.55 2 2 0 0 1 -.92 2.26 2.78 2.78 0 0 1 -1.15.14l-12.74-.1c-6 0-12 .21-17.9-.36a3.72 3.72 0 0 0 -.75 1.34.57.57 0 0 1 -.23.39.68.68 0 0 1 -.45.05l-4.67-.42-4.4-.4a3.39 3.39 0 0 1 -1.68-.44c-.46-.32-.7-.83-.27-1.19a8.87 8.87 0 0 0 -2.74 1 3 3 0 0 1 -2.82 0 2.74 2.74 0 0 1 -.8-1.21l-3.26-7.69a31.15 31.15 0 0 0 -4.25-7.79l-1.27 15.45a3 3 0 0 1 -.35 1.4c-.26.43-.28.39-.83.39l-19.33.23a48.36 48.36 0 0 1 -8.83-.47 3 3 0 0 1 -1.85-.81 2.46 2.46 0 0 1 -.41-1.52l-.91-20.03c-.09-1.56 1.76-.88 3.49-1.26z" fill="#fff" stroke="#fff" stroke-width="4"/><g stroke="#1b1f26" stroke-width="2"><path d="m94.83 20c.11-.09-.25-.15-.52-.16-2.75-.06-27.85-.36-30.28-.39a23.72 23.72 0 0 1 -.64 6.09c10.46.58 20.92.75 31.45.41a10 10 0 0 0 -.07-6" fill="#94cba6"/><path d="m215.73 6.67c.11-.09-.25-.15-.52-.16-2.75-.06-27.85-.36-30.28-.39a23.84 23.84 0 0 1 -.64 6.1c10.46.57 20.92.74 31.45.4a10 10 0 0 0 -.07-6" fill="#ffcc1d"/><path d="m26.77 25.92h7.79q.88-9.59 1.15-19.19a.72.72 0 0 0 -.18-.59 1.37 1.37 0 0 0 -.66-.23c-1.84-.33-5.17-1.3-6.49-.14-1.09 1-.57 5.09-.68 6.35q-.6 6.88-.93 13.8z" fill="#ffcb20"/><path d="m10.66 5.43a147.53 147.53 0 0 1 .52 20.16c-1.72 0-3.42.2-5.15.2l-1.03-20.79c2 0 3.68.43 5.66.43z" fill="#737ebb"/><path d="m17.78 4.65c.16 6.85.08 13.9.51 20.74a21.06 21.06 0 0 0 -6.09 0l-.73-20.74z" fill="#ea5f68"/><path d="m19.93 4.85q-.91 10.26-.8 20.56a22.71 22.71 0 0 0 5.71-.13c.19-6.44-.1-13.58-.35-20-1.29-.22-3.27-.23-4.56-.43z" fill="#ba8ebf"/><path d="m43 5.13c3.13 6.07 6.12 12.39 9.51 18.38a20 20 0 0 0 -5.68 1.73l-9.72-18.33z" fill="#93caa5"/><path d="m59.39 6.14c.28 6.69 1.32 13 1.61 19.71-2.76 0-5.44-.43-8.19-.47l-1-19.63c2.72.08 4.91.31 7.58.39z" fill="#f59b3a"/><path d="m101.2 14.15a51.51 51.51 0 0 1 .37 6.44c-12.39-1-25.23-2-37.6-.93a35 35 0 0 1 -.11-5.7c.91 0 2.24.12 3.15.1 11.43-.16 22.75.26 34.19.09z" fill="#baa082"/><path d="m95 5.84c-.08 2.3.18 5 .1 7.31a170.15 170.15 0 0 0 -29.17 0l-.31-6.92c7.61-.76 12.52-.49 20.19-.26 1.89.03 7.3-.19 9.19-.13z" fill="#93aa52"/><path d="m111.51 4.51c.25 6.85.12 13.9.79 20.74a49.82 49.82 0 0 0 -9.38 0l-1.12-20.75z" fill="#ea5f68"/><path d="m125.94 5.74c-1.49 5.67-3.49 12.17-5.06 19.32a21.4 21.4 0 0 0 -5.94-1l4.85-19.38z" fill="#baa082"/><path d="m135.29 5.29a115.18 115.18 0 0 1 .71 20.16c-2.21 0-4.39.2-6.6.2l-1.4-20.77c2.54 0 4.74.41 7.29.41z" fill="#737ebb"/><path d="m144.83 4.86c0-.25.47 0 .48.26.23 5.42.32 10.86.27 16.29a9.43 9.43 0 0 1 -.52 3.45c-2.43.27-5.05.26-7.48.52l-.43-21c2.67-.06 5.01.56 7.68.48z" fill="#f59b3a"/><path d="m148.59 5.25v20.57a34.22 34.22 0 0 0 6.48-.33c-.24-6.79-.8-13.46-1.33-20.24a27.69 27.69 0 0 1 -5.15 0z" fill="#ba8ebf"/><path d="m161.31 8c2.22 5.22 4.27 10.64 6.72 15.79a20 20 0 0 0 -5.26 1.3l-6.91-15.73z" fill="#e84574"/><path d="m175.78 4.65c.16 6.85.08 13.9.51 20.74a21.06 21.06 0 0 0 -6.09 0l-.73-20.76z" fill="#a4cfd8"/><path d="m183.89 4.63c.16 6.86.07 13.9.51 20.75a20.72 20.72 0 0 0 -6.09 0l-.73-20.77z" fill="#baa082"/><path d="m213.77 24.68c.34 0 0 .36-.37.37q-11.52.25-23 .21a23.2 23.2 0 0 1 -4.88-.41c-.37-1.86-.36-3.88-.73-5.74l29.64-.34c.09 2.05-.78 3.86-.66 5.91z" fill="#ea5f68"/><path d="m217.17 18c-8.7.13-17.64.06-26.33.4a10.25 10.25 0 0 0 0-4.8l26.33-.6z" fill="#93aa52"/><path d="m224.46 5a114.11 114.11 0 0 1 .67 20.15c-2.21 0-4.4.21-6.61.21l-1.35-20.73c2.54 0 4.75.37 7.29.37z" fill="#f59b3a"/><path d="m238 4.45c.82 6.9 2.06 13.63 1.7 20.55-3.45.22-7.55.18-11 .41q-.41-10.41-1.8-20.77c3.8-.2 7.35.01 11.1-.19z" fill="#a4cfd8"/><path d="m241.77 25.92h9.39q1.07-9.59 1.38-19.19a.66.66 0 0 0 -.21-.59 1.93 1.93 0 0 0 -.8-.23c-2.22-.33-6.22-1.3-7.82-.14-1.31 1-.69 5.09-.82 6.35q-.72 6.88-1.12 13.8z" fill="#737ebb"/><path d="m261.32 5.13c3.78 6.07 7.38 12.39 11.46 18.38a27.78 27.78 0 0 0 -6.84 1.73l-11.71-18.33z" fill="#a4cfd8"/><path d="m280.07 6.69a97.27 97.27 0 0 1 .67 18.52c-2.21 0-4.4.19-6.61.19l-1.35-19.09c2.54 0 4.74.38 7.29.38z" fill="#ffcc1d"/><path d="m290.42 5.61c.16 6.54.34 13.5 0 20-2.93.1-6.19.07-9.12.16q.71-10 .9-20a79.9 79.9 0 0 1 8.22-.16z" fill="#93aa52"/><path d="m298.27 5c0 6.68-.19 13.85-.23 20.53-1.89-.06-4.41-.46-6.3-.51a160.39 160.39 0 0 0 .5-20.21c1.76-.08 4.31.07 6.03.19z" fill="#ba8ebf"/><path d="m306.9 6.35v19a23.11 23.11 0 0 1 -6.17.15l-1-18.91a38.5 38.5 0 0 1 7.17-.24z" fill="#93caa5"/><path d="m321.55 23c-2.63-6-6-12.46-8.66-18.42-1.46.42-3.15 1.12-4.61 1.42q3.93 9.95 8.35 19.74a13 13 0 0 0 4.92-2.74z" fill="#f59b3a"/><path d="m350.5 21.26c.09-.07-.23-.12-.46-.12-2.46 0-24.85-.26-27-.29a14.45 14.45 0 0 1 -.57 4.5c9.33.42 18.67.55 28.05.3a6.15 6.15 0 0 0 -.06-4.43" fill="#94cba6"/><path d="m356.18 16.93a31.61 31.61 0 0 1 .33 4.75c-11.05-.68-22.51-1.5-33.51-.68a20.54 20.54 0 0 1 -.1-4.22c.81 0 2 .09 2.8.08 10.18-.12 20.3.19 30.48.07z" fill="#baa082"/><path d="m350.65 10.79c-.07 1.7.16 3.69.09 5.39a185.21 185.21 0 0 0 -26 0l-.28-5.11a150.22 150.22 0 0 1 18-.19c1.68.06 6.54-.13 8.19-.09z" fill="#e84574"/><path d="m345.47 5.52c-.07 1.7.16 3.69.09 5.39a185.21 185.21 0 0 0 -26 0l-.28-5.11a150.22 150.22 0 0 1 18-.19c1.72.06 6.51-.13 8.19-.09z" fill="#737ebb"/><path d="m362.21 5.33a147.39 147.39 0 0 1 .52 20.15c-1.72 0-3.42.21-5.15.21l-1.05-20.77c1.98 0 3.7.41 5.68.41z" fill="#ea5f68"/><path d="m372.33 4.54c.16 6.86.08 13.9.51 20.75a20.72 20.72 0 0 0 -6.09 0l-.75-20.75z" fill="#93aa52"/><path d="m374.48 8.81a134.28 134.28 0 0 0 -.8 16.52 28.63 28.63 0 0 0 5.71-.1c.19-5.18-.1-10.91-.35-16.09-1.29-.14-3.27-.14-4.56-.33z" fill="#ffcb20"/><path d="m390 4.69c.25 6.86.12 13.9.79 20.75a48.89 48.89 0 0 0 -9.37 0l-1.15-20.75z" fill="#a4cfd8"/><path d="m406 6.51c-2.52 5.48-5.69 11.72-8.56 18.67a20.05 20.05 0 0 0 -5.7-1.71l8.38-18.75z" fill="#f59b3a"/><path d="m417.62 5c.28 6.86.13 13.9.89 20.75a62.42 62.42 0 0 0 -10.59 0l-1.28-20.75z" fill="#ba8ebf"/><path d="m425.17 6.71c.16 6.27.08 12.71.51 19a23 23 0 0 0 -6.09 0l-.73-19z" fill="#93caa5"/><path d="m436.27 5.37c-1.61 5.88-3.64 12.67-5.47 20a8.33 8.33 0 0 0 -3.77-.15l5.35-20.07z" fill="#e84574"/><path d="m443.72 4.94a116.17 116.17 0 0 1 .67 20.16c-2.22 0-4.4.2-6.61.2l-1.36-20.77c2.58 0 4.75.41 7.3.41z" fill="#93aa52"/><path d="m30.12 9.82a18.48 18.48 0 0 0 2.88.08" fill="none"/><path d="m29.87 22.15a10.82 10.82 0 0 0 2.13.06" fill="none"/><path d="m68.84 6.26a44.33 44.33 0 0 0 .44 5.63" fill="none"/><path d="m90.37 6.66a33.45 33.45 0 0 1 -.26 6" fill="none"/><path d="m170.38 8.78a37.64 37.64 0 0 1 4.25.06" fill="none"/><path d="m170.88 21.43a42.5 42.5 0 0 0 4.37-.1" fill="none"/><path d="m284.93 9.75 2.85.21" fill="none"/><path d="m285.2 21.35a5.84 5.84 0 0 0 2.32.44" fill="none"/><path d="m380.79 8.17 5.81.15c.74 0 1.61.1 2 .6" fill="none"/><path d="m381.57 11.55 8.29.63" fill="none"/><path d="m381.61 18.79a15 15 0 0 1 6 .81" fill="none"/><path d="m381.6 22.19a36.13 36.13 0 0 1 5.7.18" fill="none"/><path d="m413 9a9.15 9.15 0 0 1 5 .41" fill="none"/><path d="m414.52 21.63a5.46 5.46 0 0 1 3.18.21" fill="none"/></g></g></svg>